<mxfile host="app.diagrams.net" modified="2024-02-22T23:55:20.833Z" agent="Mozilla/5.0 (Windows NT 10.0; Win64; x64) AppleWebKit/537.36 (KHTML, like Gecko) Chrome/121.0.0.0 Safari/537.36" etag="k-DJ3tuQzwQe9D0HiyTo" version="23.1.1" type="device">
  <diagram name="Page-1" id="90a13364-a465-7bf4-72fc-28e22215d7a0">
    <mxGraphModel dx="1147" dy="654" grid="1" gridSize="10" guides="1" tooltips="1" connect="1" arrows="1" fold="1" page="1" pageScale="1.5" pageWidth="1169" pageHeight="826" background="none" math="0" shadow="0">
      <root>
        <mxCell id="0" style=";html=1;" />
        <mxCell id="1" style=";html=1;" parent="0" />
        <mxCell id="5CIvGxlJdJBtJoQN0tb6-5" value="" style="edgeStyle=orthogonalEdgeStyle;rounded=0;orthogonalLoop=1;jettySize=auto;html=1;" edge="1" parent="1" source="5CIvGxlJdJBtJoQN0tb6-3" target="5CIvGxlJdJBtJoQN0tb6-4">
          <mxGeometry relative="1" as="geometry" />
        </mxCell>
        <mxCell id="5CIvGxlJdJBtJoQN0tb6-3" value="Painéis Solares" style="rounded=1;whiteSpace=wrap;html=1;shadow=1;gradientColor=none;glass=0;fillColor=#F7F7F7;" vertex="1" parent="1">
          <mxGeometry x="510" y="300" width="120" height="60" as="geometry" />
        </mxCell>
        <mxCell id="5CIvGxlJdJBtJoQN0tb6-7" value="" style="edgeStyle=orthogonalEdgeStyle;rounded=0;orthogonalLoop=1;jettySize=auto;html=1;" edge="1" parent="1" source="5CIvGxlJdJBtJoQN0tb6-4" target="5CIvGxlJdJBtJoQN0tb6-6">
          <mxGeometry relative="1" as="geometry" />
        </mxCell>
        <mxCell id="5CIvGxlJdJBtJoQN0tb6-4" value="Sistema de Harvesting" style="whiteSpace=wrap;html=1;rounded=1;shadow=1;gradientColor=none;glass=0;fillColor=#F7F7F7;" vertex="1" parent="1">
          <mxGeometry x="680" y="300" width="120" height="60" as="geometry" />
        </mxCell>
        <mxCell id="5CIvGxlJdJBtJoQN0tb6-11" value="" style="edgeStyle=orthogonalEdgeStyle;rounded=0;orthogonalLoop=1;jettySize=auto;html=1;" edge="1" parent="1" source="5CIvGxlJdJBtJoQN0tb6-6" target="5CIvGxlJdJBtJoQN0tb6-10">
          <mxGeometry relative="1" as="geometry" />
        </mxCell>
        <mxCell id="5CIvGxlJdJBtJoQN0tb6-6" value="Sistema de Distribuição" style="whiteSpace=wrap;html=1;rounded=1;shadow=1;gradientColor=none;glass=0;fillColor=#F7F7F7;" vertex="1" parent="1">
          <mxGeometry x="880" y="300" width="120" height="60" as="geometry" />
        </mxCell>
        <mxCell id="5CIvGxlJdJBtJoQN0tb6-9" value="" style="edgeStyle=orthogonalEdgeStyle;rounded=0;orthogonalLoop=1;jettySize=auto;html=1;endArrow=none;endFill=0;startArrow=classic;startFill=1;" edge="1" parent="1" source="5CIvGxlJdJBtJoQN0tb6-8">
          <mxGeometry relative="1" as="geometry">
            <mxPoint x="840" y="330" as="targetPoint" />
          </mxGeometry>
        </mxCell>
        <mxCell id="5CIvGxlJdJBtJoQN0tb6-8" value="Sistema de Armazenamento" style="rounded=1;whiteSpace=wrap;html=1;shadow=1;glass=0;gradientColor=none;fillColor=#F7F7F7;" vertex="1" parent="1">
          <mxGeometry x="780" y="380" width="120" height="60" as="geometry" />
        </mxCell>
        <mxCell id="5CIvGxlJdJBtJoQN0tb6-12" style="edgeStyle=orthogonalEdgeStyle;rounded=0;orthogonalLoop=1;jettySize=auto;html=1;exitX=-0.002;exitY=0.214;exitDx=0;exitDy=0;endArrow=none;endFill=0;startArrow=classic;startFill=1;exitPerimeter=0;" edge="1" parent="1" source="5CIvGxlJdJBtJoQN0tb6-10">
          <mxGeometry relative="1" as="geometry">
            <mxPoint x="1040" y="330" as="targetPoint" />
            <Array as="points" />
          </mxGeometry>
        </mxCell>
        <mxCell id="5CIvGxlJdJBtJoQN0tb6-13" style="edgeStyle=orthogonalEdgeStyle;rounded=0;orthogonalLoop=1;jettySize=auto;html=1;exitX=0;exitY=0.783;exitDx=0;exitDy=0;startArrow=classic;startFill=1;endArrow=none;endFill=0;exitPerimeter=0;" edge="1" parent="1">
          <mxGeometry relative="1" as="geometry">
            <mxPoint x="1039.99" y="370" as="targetPoint" />
            <mxPoint x="1079.99" y="409.62" as="sourcePoint" />
            <Array as="points">
              <mxPoint x="1040" y="410" />
            </Array>
          </mxGeometry>
        </mxCell>
        <mxCell id="5CIvGxlJdJBtJoQN0tb6-10" value="Subsistemas do Satélite" style="whiteSpace=wrap;html=1;rounded=1;shadow=1;gradientColor=none;glass=0;fillColor=#F7F7F7;" vertex="1" parent="1">
          <mxGeometry x="1080" y="300" width="120" height="140" as="geometry" />
        </mxCell>
      </root>
    </mxGraphModel>
  </diagram>
</mxfile>
